<svg xmlns="http://www.w3.org/2000/svg" viewBox="0 0 16 16">
  <rect x="1" y="4" width="2" height="2" fill="#e8638a"/>
  <rect x="3" y="2" width="2" height="2" fill="#e8638a"/>
  <rect x="5" y="2" width="2" height="2" fill="#e8638a"/>
  <rect x="7" y="4" width="2" height="2" fill="#e8638a"/>
  <rect x="9" y="2" width="2" height="2" fill="#e8638a"/>
  <rect x="11" y="2" width="2" height="2" fill="#e8638a"/>
  <rect x="13" y="4" width="2" height="2" fill="#e8638a"/>
  <rect x="1" y="6" width="2" height="2" fill="#e8638a"/>
  <rect x="3" y="6" width="2" height="2" fill="#e8638a"/>
  <rect x="5" y="6" width="2" height="2" fill="#e8638a"/>
  <rect x="7" y="6" width="2" height="2" fill="#e8638a"/>
  <rect x="9" y="6" width="2" height="2" fill="#e8638a"/>
  <rect x="11" y="6" width="2" height="2" fill="#e8638a"/>
  <rect x="13" y="6" width="2" height="2" fill="#e8638a"/>
  <rect x="3" y="8" width="2" height="2" fill="#e8638a"/>
  <rect x="5" y="8" width="2" height="2" fill="#e8638a"/>
  <rect x="7" y="8" width="2" height="2" fill="#e8638a"/>
  <rect x="9" y="8" width="2" height="2" fill="#e8638a"/>
  <rect x="11" y="8" width="2" height="2" fill="#e8638a"/>
  <rect x="5" y="10" width="2" height="2" fill="#e8638a"/>
  <rect x="7" y="10" width="2" height="2" fill="#e8638a"/>
  <rect x="9" y="10" width="2" height="2" fill="#e8638a"/>
  <rect x="7" y="12" width="2" height="2" fill="#e8638a"/>
  <rect x="3" y="4" width="2" height="2" fill="#f0a0b8"/>
  <rect x="5" y="4" width="2" height="2" fill="#f0a0b8"/>
  <rect x="9" y="4" width="2" height="2" fill="#f0a0b8"/>
  <rect x="11" y="4" width="2" height="2" fill="#f0a0b8"/>
</svg>
